HIERARCHY
ROOT Hips
{
 OFFSET 0.000000 0.000000 0.000000
 CHANNELS 6 Xposition Yposition Zposition Yrotation Xrotation Zrotation
 JOINT Chest
 {
  OFFSET 0.000000 14.374500 -0.011500
  CHANNELS 3 Yrotation Xrotation Zrotation
  JOINT Chest2
  {
   OFFSET 0.000000 9.203400 0.023400
   CHANNELS 3 Yrotation Xrotation Zrotation
   JOINT Chest3
   {
    OFFSET 0.000000 9.162700 0.000000
    CHANNELS 3 Yrotation Xrotation Zrotation
    JOINT Chest4
    {
     OFFSET 0.000000 9.153300 0.000000
     CHANNELS 3 Yrotation Xrotation Zrotation
     JOINT Neck
     {
      OFFSET 0.000000 13.353600 0.000000
      CHANNELS 3 Yrotation Xrotation Zrotation
      JOINT Head
      {
       OFFSET 0.000000 8.573800 0.049400
       CHANNELS 3 Yrotation Xrotation Zrotation
       End Site
       {
        OFFSET 0.000000 16.219200 0.026100
       }
      }
     }
     JOINT RightCollar
     {
      OFFSET -2.497100 8.876100 0.000000
      CHANNELS 3 Yrotation Xrotation Zrotation
      JOINT RightShoulder
      {
       OFFSET -12.289200 0.000000 0.000000
       CHANNELS 3 Yrotation Xrotation Zrotation
       JOINT RightElbow
       {
        OFFSET 0.000000 -28.194900 0.000000
        CHANNELS 3 Yrotation Xrotation Zrotation
        JOINT RightWrist
        {
         OFFSET 0.000000 -23.009700 0.007900
         CHANNELS 3 Yrotation Xrotation Zrotation
         End Site
         {
          OFFSET 0.000000 -17.151500 0.000000
         }
        }
       }
      }
     }
     JOINT LeftCollar
     {
      OFFSET 2.497100 8.876100 0.000000
      CHANNELS 3 Yrotation Xrotation Zrotation
      JOINT LeftShoulder
      {
       OFFSET 12.289200 0.000000 0.000000
       CHANNELS 3 Yrotation Xrotation Zrotation
       JOINT LeftElbow
       {
        OFFSET 0.000000 -28.194900 0.000000
        CHANNELS 3 Yrotation Xrotation Zrotation
        JOINT LeftWrist
        {
         OFFSET 0.000000 -23.009700 0.007900
         CHANNELS 3 Yrotation Xrotation Zrotation
         End Site
         {
          OFFSET 0.000000 -17.151500 0.000000
         }
        }
       }
      }
     }
    }
   }
  }
 }
 JOINT RightHip
 {
  OFFSET -11.777600 0.056700 0.005700
  CHANNELS 3 Yrotation Xrotation Zrotation
  JOINT RightKnee
  {
   OFFSET 0.000000 -39.966000 -0.004200
   CHANNELS 3 Yrotation Xrotation Zrotation
   JOINT RightAnkle
   {
    OFFSET 0.000000 -41.981900 0.027400
    CHANNELS 3 Yrotation Xrotation Zrotation
    JOINT RightToe
    {
     OFFSET 0.000000 -9.910600 16.950100
     CHANNELS 3 Yrotation Xrotation Zrotation
     End Site
     {
      OFFSET 0.000000 -1.461000 6.191600
     }
    }
   }
  }
 }
 JOINT LeftHip
 {
  OFFSET 11.777600 0.056700 0.005700
  CHANNELS 3 Yrotation Xrotation Zrotation
  JOINT LeftKnee
  {
   OFFSET 0.000000 -39.966000 -0.004200
   CHANNELS 3 Yrotation Xrotation Zrotation
   JOINT LeftAnkle
   {
    OFFSET 0.000000 -41.981900 0.027400
    CHANNELS 3 Yrotation Xrotation Zrotation
    JOINT LeftToe
    {
     OFFSET 0.000000 -9.910600 16.950100
     CHANNELS 3 Yrotation Xrotation Zrotation
     End Site
     {
      OFFSET 0.000000 -1.461000 6.191600
     }
    }
   }
  }
 }
}
MOTION
Frames: 9
Frame Time: 0.008333
4.404760 130.449310 26.259540 170.163346 -47.586958 1.061089 1.450004 29.612565 4.354527 0.090429 5.714372 0.756338 0.182015 8.914184 1.170193 0.925385 23.654755 3.325446 0.810272 14.063652 -2.176959 1.339278 -10.940898 -2.457970 10.182318 -13.644925 -4.533275 43.930063 -42.955703 -23.269001 49.010821 11.133162 -4.533027 26.468593 -20.189433 -40.436057 -15.318818 -12.578188 3.341974 -21.734196 -44.312042 10.924589 -20.729600 4.921423 10.280805 -8.542653 -46.996043 24.180336 11.292176 -31.300610 -0.957302 -93.775810 86.664811 -94.293467 1.186969 -26.421073 7.744149 -0.001261 -0.002914 -0.000737 0.107243 -26.868720 -6.511411 149.661682 67.959485 161.026825 2.684772 16.433642 -2.515927 0.010767 0.003693 0.006296
4.400964 130.453033 26.259219 170.262138 -47.619944 0.938374 1.455129 29.610956 4.352797 0.070771 5.730096 0.803426 0.204131 8.887587 1.111143 0.942736 23.657377 3.338875 0.804373 14.079931 -2.166693 1.330676 -10.924301 -2.445643 10.154431 -13.583758 -4.529231 43.927805 -42.972345 -23.280965 48.897742 11.151772 -4.512050 26.447452 -20.175022 -40.548485 -15.321757 -12.539669 3.324353 -21.733577 -44.333090 10.929295 -20.646082 4.929647 10.302929 -8.447052 -46.982709 24.026926 11.197445 -31.260134 -0.889703 -93.446763 86.669257 -93.961072 1.180455 -26.408826 7.741683 -0.001340 -0.013563 -0.000783 0.055196 -26.856529 -6.468151 149.602751 67.936743 160.980128 2.685616 16.438471 -2.478904 -0.001183 0.002872 -0.000691
4.393794 130.454970 26.259862 170.314326 -47.641577 0.865767 1.484843 29.598890 4.334093 0.092677 5.712594 0.766302 0.193301 8.901865 1.159513 0.959387 23.652740 3.329350 0.801212 14.097772 -2.151802 1.323878 -10.906195 -2.429090 10.121146 -13.546011 -4.471294 43.941138 -42.935038 -23.320444 48.780733 11.105959 -4.515021 26.414358 -20.109688 -40.625395 -15.325367 -12.499884 3.308276 -21.704945 -44.353994 10.914461 -20.558258 4.923883 10.330418 -8.370832 -46.966540 23.884218 11.147097 -31.219141 -0.841756 -92.957029 86.669148 -93.468014 1.168879 -26.412024 7.744181 0.001754 -0.008359 0.001026 0.038276 -26.851789 -6.442445 149.576767 67.919925 160.971716 2.678811 16.440697 -2.452748 -0.002498 0.001154 -0.001460
4.385373 130.456363 26.260463 170.352706 -47.658440 0.811514 1.505999 29.591609 4.314860 0.103762 5.702537 0.744924 0.195443 8.904768 1.171885 0.974937 23.649216 3.316140 0.804962 14.113426 -2.131908 1.323224 -10.893503 -2.377584 10.093111 -13.473665 -4.491272 43.906266 -42.977786 -23.306810 48.694076 11.035892 -4.535306 26.350628 -20.023395 -40.707983 -15.326437 -12.462045 3.296236 -21.639768 -44.375991 10.874310 -20.482103 4.905030 10.362723 -8.330149 -46.953579 23.792786 11.104387 -31.196421 -0.806944 -92.746452 86.673596 -93.263372 1.164046 -26.408420 7.747132 0.002713 -0.012620 0.001586 0.023156 -26.849115 -6.420540 149.555602 67.907325 160.955748 2.678905 16.446800 -2.431333 -0.005067 0.001824 -0.002963
4.375420 130.456350 26.261590 170.373539 -47.665286 0.779043 1.528839 29.580096 4.283098 0.107363 5.699841 0.740129 0.194248 8.910487 1.204912 0.975963 23.637516 3.253596 0.817324 14.125112 -2.108344 1.324979 -10.882537 -2.327479 10.077660 -13.402731 -4.513378 43.847634 -43.021132 -23.273913 48.541590 10.977148 -4.549534 26.387461 -19.927952 -40.888627 -15.320519 -12.426592 3.288375 -21.537584 -44.401084 10.807099 -20.429381 4.883544 10.402866 -8.341526 -46.929653 23.788076 11.079549 -31.182017 -0.785082 -92.585130 86.680057 -93.111275 1.164306 -26.417501 7.736535 0.004205 -0.015655 0.002458 0.023959 -26.860969 -6.404951 149.553598 67.894091 160.959453 2.684606 16.461977 -2.420927 -0.002508 0.004511 -0.001467
4.367778 130.456789 26.261975 170.404277 -47.672201 0.733594 1.542435 29.575162 4.255125 0.111131 5.696878 0.735086 0.194533 8.911069 1.236607 0.977047 23.630305 3.191342 0.835094 14.130901 -2.082631 1.332239 -10.868501 -2.309972 10.075093 -13.347755 -4.519637 43.771367 -43.038204 -23.227695 48.378114 10.920390 -4.575076 26.484187 -19.778991 -41.176815 -15.307096 -12.394417 3.283039 -21.413329 -44.428602 10.717690 -20.377404 4.879872 10.453158 -8.358098 -46.914160 23.826138 11.038572 -31.154340 -0.756345 -92.166593 86.681882 -92.703679 1.163651 -26.429524 7.740701 0.002513 -0.007872 0.001469 0.015950 -26.876952 -6.378450 149.582350 67.879518 161.003150 2.681417 16.470144 -2.422743 0.005566 0.002246 0.003255
4.365988 130.456295 26.263474 170.457570 -47.671297 0.650562 1.548211 29.567775 4.250508 0.114726 5.693689 0.730082 0.207745 8.901424 1.227877 0.992155 23.637357 3.226901 0.844861 14.131869 -2.069392 1.342418 -10.865077 -2.325244 10.090643 -13.292938 -4.590064 43.680194 -43.051082 -23.160264 48.230545 10.870611 -4.611538 26.573612 -19.574732 -41.532724 -15.281131 -12.385841 3.232045 -21.279084 -44.457425 10.607870 -20.293616 4.875629 10.503049 -8.361700 -46.930123 23.846825 10.975242 -31.154313 -0.703837 -92.010101 86.680555 -92.554637 1.164191 -26.424124 7.744208 -0.000445 -0.016426 -0.000260 -0.028307 -26.901821 -6.318823 149.611308 67.867600 161.033258 2.683325 16.481901 -2.409469 0.003649 -0.000513 0.002134
4.357753 130.455802 26.263382 170.490560 -47.667133 0.611750 1.549513 29.561420 4.216708 0.116884 5.690004 0.725327 0.213851 8.888777 1.159398 1.018862 23.636553 3.249915 0.888316 14.139519 -1.991666 1.359138 -10.873806 -2.340863 10.117812 -13.241642 -4.607307 43.592389 -43.052760 -23.080705 48.048924 10.820576 -4.656420 26.634354 -19.395638 -41.863244 -15.242081 -12.355103 3.244526 -21.134514 -44.485826 10.474015 -20.210127 4.837196 10.554323 -8.424870 -46.931545 23.873630 10.937466 -31.143321 -0.693424 -91.764514 86.697200 -92.322373 1.161828 -26.433832 7.751418 -0.004233 -0.014962 -0.002475 -0.050380 -26.931638 -6.286440 149.597257 67.857412 161.000179 2.682961 16.509053 -2.375948 -0.003169 -0.002406 -0.001853
4.353163 130.455804 26.262959 170.537670 -47.663426 0.551371 1.540006 29.556362 4.222503 0.122009 5.685315 0.695360 0.216173 8.880190 1.135287 1.020766 23.629910 3.228737 0.916750 14.129598 -2.007143 1.383263 -10.866888 -2.278885 10.161567 -13.189785 -4.650762 43.519397 -43.039855 -22.995117 47.826960 10.767542 -4.709630 26.686342 -19.263820 -42.158203 -15.185003 -12.329530 3.248181 -20.976150 -44.513013 10.311867 -20.180423 4.793378 10.615598 -8.585680 -46.895958 23.893281 10.875346 -31.122732 -0.660034 -91.302759 86.707794 -91.878576 1.160222 -26.445646 7.752241 -0.006683 -0.006833 -0.003907 -0.092465 -26.960539 -6.243112 149.637842 67.847094 161.036542 2.686845 16.527383 -2.372971 0.000511 -0.001583 0.000299
